<svg xmlns="http://www.w3.org/2000/svg" viewBox="0 0 512 512">
  <defs>
    <linearGradient id="body" x1="0" y1="0" x2="0" y2="1">
      <stop offset="0" stop-color="#e8e8e8"/>
      <stop offset="1" stop-color="#c0c0c0"/>
    </linearGradient>
    <linearGradient id="display" x1="0" y1="0" x2="1" y2="1">
      <stop offset="0" stop-color="#f7edb5"/>
      <stop offset="1" stop-color="#ecd9a0"/>
    </linearGradient>
  </defs>
  <rect x="16" y="80" width="480" height="352" rx="24" ry="24" fill="url(#body)" stroke="#888" stroke-width="6"/>
  <rect x="40" y="112" width="170" height="288" rx="12" fill="#b8b8b8" stroke="#9a9a9a" stroke-width="3"/>
  <circle cx="125" cy="256" r="60" fill="none" stroke="#2a2a2a" stroke-width="3"/>
  <circle cx="125" cy="256" r="20" fill="#2a2a2a"/>
  <circle cx="88" cy="192" r="6" fill="#2a2a2a"/>
  <circle cx="162" cy="192" r="6" fill="#2a2a2a"/>
  <circle cx="88" cy="320" r="6" fill="#2a2a2a"/>
  <circle cx="162" cy="320" r="6" fill="#2a2a2a"/>
  <rect x="240" y="112" width="232" height="180" rx="10" fill="url(#display)" stroke="#8a7a4a" stroke-width="4"/>
  <text x="356" y="178" font-family="Georgia,serif" font-size="42" font-weight="700" fill="#3a2a00" text-anchor="middle">晶体</text>
  <text x="356" y="228" font-family="Georgia,serif" font-size="42" font-weight="700" fill="#3a2a00" text-anchor="middle">管</text>
  <text x="356" y="270" font-family="monospace" font-size="18" fill="#7a6a3a" text-anchor="middle">收音机</text>
  <rect x="240" y="310" width="232" height="90" rx="8" fill="#d0d0d0" stroke="#aaa" stroke-width="3"/>
  <circle cx="300" cy="355" r="28" fill="#b0b0b0" stroke="#999" stroke-width="3"/>
  <polygon points="291,340 291,370 317,355" fill="#555"/>
  <circle cx="412" cy="355" r="22" fill="#d0d0d0" stroke="#bbb" stroke-width="2.5"/>
  <polygon points="404,342 404,368 425,355" fill="#555" transform="rotate(180,412,355)"/>
  <rect x="220" y="46" width="20" height="42" rx="4" fill="#999"/>
  <rect x="226" y="10" width="8" height="42" rx="4" fill="#aaa"/>
</svg>
